<svg width="66" height="66" viewBox="0 0 66 66" fill="none" xmlns="http://www.w3.org/2000/svg">
<path fill-rule="evenodd" clip-rule="evenodd" d="M29 0C27.8954 0 27 0.895429 27 2V6.66905C23.9864 7.35288 21.1642 8.54081 18.6268 10.1395L14.9014 6.41411C14.1204 5.63306 12.854 5.63306 12.073 6.41411L7.12324 11.3639C6.3422 12.1449 6.34219 13.4112 7.12324 14.1923L10.7018 17.7708C8.81803 20.5236 7.43079 23.643 6.66905 27H2C0.895431 27 0 27.8954 0 29V36C0 37.1046 0.895428 38 2 38H6.46206C7.05791 41.1822 8.212 44.1678 9.81879 46.8511L6.41509 50.2548C5.63404 51.0359 5.63404 52.3022 6.41509 53.0833L11.3648 58.033C12.1459 58.8141 13.4122 58.8141 14.1933 58.033L17.2753 54.951C20.1471 57.0118 23.44 58.5231 27 59.331V64C27 65.1046 27.8954 66 29 66H36C37.1046 66 38 65.1046 38 64V59.5379C41.7381 58.838 45.2049 57.3677 48.2292 55.2982L50.9639 58.0329C51.7449 58.814 53.0112 58.814 53.7923 58.0329L58.742 53.0832C59.5231 52.3021 59.5231 51.0358 58.742 50.2547L55.8605 47.3732C57.6348 44.5571 58.9032 41.3901 59.5379 38H64C65.1046 38 66 37.1046 66 36V29C66 27.8954 65.1046 27 64 27H59.331C58.5231 23.44 57.0118 20.1471 54.951 17.2753L58.0339 14.1924C58.8149 13.4113 58.8149 12.145 58.0339 11.364L53.0841 6.41421C52.3031 5.63316 51.0368 5.63316 50.2557 6.41421L46.8511 9.81879C44.1678 8.212 41.1822 7.05791 38 6.46206V2C38 0.895431 37.1046 0 36 0H29ZM33 49C41.8366 49 49 41.8366 49 33C49 24.1634 41.8366 17 33 17C24.1634 17 17 24.1634 17 33C17 41.8366 24.1634 49 33 49Z" fill="#2E004A"/>
</svg>
