<svg width="145" height="146" viewBox="0 0 145 146" fill="none" xmlns="http://www.w3.org/2000/svg">
<path d="M0 29.5488H145V145.549H0V29.5488Z" fill="#2240F1"/>
<path d="M0 0.548828H145V29.5488H0V0.548828Z" fill="#0FFFFF"/>
<path d="M39 29.5488L39 0.548829" stroke="#00C9FF" stroke-width="4"/>
<ellipse cx="2.5" cy="2.5" rx="2.5" ry="2.5" transform="matrix(1 8.74228e-08 8.74228e-08 -1 27 26.5488)" fill="#00C9FF"/>
<ellipse cx="2.5" cy="2.5" rx="2.5" ry="2.5" transform="matrix(1 8.74228e-08 8.74228e-08 -1 27 8.54883)" fill="#00C9FF"/>
<path d="M116 29.5488H135V59.0488C135 64.2955 130.747 68.5488 125.5 68.5488V68.5488C120.253 68.5488 116 64.2955 116 59.0488V29.5488Z" fill="#2133E1"/>
<path d="M90 29.5488H110V58.5488C110 64.0717 105.523 68.5488 100 68.5488V68.5488C94.4772 68.5488 90 64.0717 90 58.5488V29.5488Z" fill="#2133E1"/>
<path d="M65 29.5488H84V59.0488C84 64.2955 79.7467 68.5488 74.5 68.5488V68.5488C69.2533 68.5488 65 64.2955 65 59.0488V29.5488Z" fill="#2133E1"/>
</svg>
