<svg width="145" height="145" viewBox="0 0 145 145" fill="none" xmlns="http://www.w3.org/2000/svg">
<rect width="145" height="145" rx="20" fill="#0FFFFF"/>
<circle cx="19" cy="19" r="5" fill="#00C9FF"/>
<circle cx="19" cy="126" r="5" fill="#00C9FF"/>
<circle cx="126" cy="19" r="5" fill="#00C9FF"/>
<circle cx="126" cy="126" r="5" fill="#00C9FF"/>
<circle cx="70" cy="73" r="49" fill="#00C9FF"/>
<path fill-rule="evenodd" clip-rule="evenodd" d="M60.3156 36.5833C60.3156 31.2906 64.6062 27 69.8989 27C75.1917 27 79.4823 31.2906 79.4823 36.5833V56.4199L96.6578 46.5036C101.241 43.8572 107.103 45.4277 109.749 50.0113C112.395 54.595 110.825 60.456 106.241 63.1024L89.0784 73.0113L106.241 82.9202C110.825 85.5666 112.395 91.4277 109.749 96.0113C107.103 100.595 101.241 102.165 96.6578 99.5191L79.4823 89.6027V109.417C79.4823 114.709 75.1917 119 69.8989 119C64.6062 119 60.3156 114.709 60.3156 109.417V89.6175L43.1657 99.5191C38.582 102.165 32.7209 100.595 30.0746 96.0113C27.4282 91.4277 28.9987 85.5666 33.5823 82.9202L50.7451 73.0113L33.5823 63.1024C28.9987 60.456 27.4282 54.595 30.0746 50.0113C32.721 45.4277 38.582 43.8572 43.1657 46.5036L60.3156 56.4051V36.5833Z" fill="#0FFFFF"/>
<circle cx="70" cy="73" r="11" fill="#00C9FF"/>
</svg>
