<svg width="196" height="103" viewBox="0 0 196 103" fill="none" xmlns="http://www.w3.org/2000/svg">
<path d="M102.706 97.4036C100.249 100.326 95.751 100.326 93.2939 97.4036L84.8132 87.3184C75.3885 76.1106 83.3562 59 98 59V59C112.644 59 120.612 76.1106 111.187 87.3184L102.706 97.4036Z" fill="#FFE605"/>
<path d="M101.221 88.1345C99.5449 90.1462 96.4551 90.1462 94.7787 88.1345L89.0046 81.2055C82.6491 73.5789 88.0724 62 98 62V62C107.928 62 113.351 73.5789 106.995 81.2055L101.221 88.1345Z" fill="#FFFF05"/>
<path d="M99.9757 80.7918C98.9219 81.9697 97.0781 81.9697 96.0243 80.7918L92.3355 76.6691C87.9546 71.7728 91.4299 64 98 64V64C104.57 64 108.045 71.7728 103.664 76.6691L99.9757 80.7918Z" fill="white"/>
<path d="M6 8C6 3.58172 9.58172 0 14 0H181C185.418 0 189 3.58172 189 8V23H6V8Z" fill="#FF64B2"/>
<rect y="23" width="196" height="17" rx="6" fill="#FD30A4"/>
<path fill-rule="evenodd" clip-rule="evenodd" d="M174 40H21L53 54V61C53 65.4183 56.5817 69 61 69H135C139.418 69 143 65.4183 143 61V54L174 40Z" fill="#2240F1"/>
<path d="M80 40H90V55C90 57.7614 87.7614 60 85 60V60C82.2386 60 80 57.7614 80 55V40Z" fill="#2133E1"/>
<path d="M93 40H103V55C103 57.7614 100.761 60 98 60V60C95.2386 60 93 57.7614 93 55V40Z" fill="#2133E1"/>
<path d="M106 40H116V55C116 57.7614 113.761 60 111 60V60C108.239 60 106 57.7614 106 55V40Z" fill="#2133E1"/>
<circle cx="2.5" cy="2.5" r="2.5" transform="matrix(-1 0 0 1 166 3)" fill="#FD30A4"/>
<path d="M154 0L154 23" stroke="#FD30A4" stroke-width="4"/>
<path d="M42 3.42727e-06L42 10C42 13.866 45.134 17 49 17L77 17C80.866 17 84 13.866 84 10L84 3.34211e-07" stroke="#FD30A4" stroke-width="4"/>
<ellipse cx="2.5" cy="2.5" rx="2.5" ry="2.5" transform="matrix(1 -7.36442e-08 -1.03779e-07 -1 48 12)" fill="#FD30A4"/>
<ellipse cx="2.5" cy="2.5" rx="2.5" ry="2.5" transform="matrix(1 -7.36442e-08 -1.03779e-07 -1 73 12)" fill="#FD30A4"/>
</svg>
