<svg width="112" height="77" viewBox="0 0 112 77" fill="none" xmlns="http://www.w3.org/2000/svg">
<path d="M11.0484 16.2338C11.6456 12.9494 16.3544 12.9494 16.9516 16.2338L28 77L1.34631e-05 77L11.0484 16.2338Z" fill="#FFE605"/>
<path d="M11.0451 36.8428C11.6256 33.534 16.3744 33.534 16.9549 36.8428L24 77L4.00001 77L11.0451 36.8428Z" fill="#FFFF05"/>
<path d="M11.0387 58.2615C11.5835 54.9018 16.4165 54.9017 16.9613 58.2615L20 77L8.00001 77L11.0387 58.2615Z" fill="white"/>
<path d="M39.0484 16.2338C39.6456 12.9494 44.3544 12.9494 44.9516 16.2338L56 77L28 77L39.0484 16.2338Z" fill="#FFE605"/>
<path d="M39.0451 36.8428C39.6256 33.534 44.3744 33.534 44.9549 36.8428L52 77L32 77L39.0451 36.8428Z" fill="#FFFF05"/>
<path d="M39.0387 58.2615C39.5835 54.9018 44.4165 54.9017 44.9613 58.2615L48 77L36 77L39.0387 58.2615Z" fill="white"/>
<path d="M67.0484 16.2338C67.6456 12.9494 72.3544 12.9494 72.9516 16.2338L84 77L56 77L67.0484 16.2338Z" fill="#FFE605"/>
<path d="M67.0451 36.8428C67.6256 33.534 72.3744 33.534 72.9549 36.8428L80 77L60 77L67.0451 36.8428Z" fill="#FFFF05"/>
<path d="M67.0387 58.2615C67.5835 54.9018 72.4165 54.9017 72.9613 58.2615L76 77L64 77L67.0387 58.2615Z" fill="white"/>
<path d="M95.0484 16.2338C95.6456 12.9494 100.354 12.9494 100.952 16.2338L112 77L84 77L95.0484 16.2338Z" fill="#FFE605"/>
<path d="M95.0451 36.8428C95.6256 33.534 100.374 33.534 100.955 36.8428L108 77L88 77L95.0451 36.8428Z" fill="#FFFF05"/>
<path d="M95.0387 58.2615C95.5835 54.9018 100.416 54.9017 100.961 58.2615L104 77L92 77L95.0387 58.2615Z" fill="white"/>
</svg>
