<svg width="112" height="35" viewBox="0 0 112 35" fill="none" xmlns="http://www.w3.org/2000/svg">
<path d="M11.2146 6.96357C12.2203 4.44914 15.7797 4.44914 16.7854 6.96357L28 35H0L11.2146 6.96357Z" fill="#FFE605"/>
<path d="M11.2146 16.9636C12.2203 14.4491 15.7797 14.4491 16.7854 16.9636L24 35H4L11.2146 16.9636Z" fill="#FFFF05"/>
<path d="M11.191 26.4906C12.1643 23.8951 15.8357 23.8951 16.809 26.4906L20 35H8L11.191 26.4906Z" fill="white"/>
<path d="M95.2146 6.96357C96.2203 4.44914 99.7797 4.44914 100.785 6.96357L112 35H84L95.2146 6.96357Z" fill="#FFE605"/>
<path d="M95.2146 16.9636C96.2203 14.4491 99.7797 14.4491 100.785 16.9636L108 35H88L95.2146 16.9636Z" fill="#FFFF05"/>
<path d="M95.191 26.4906C96.1643 23.8951 99.8357 23.8951 100.809 26.4906L104 35H92L95.191 26.4906Z" fill="white"/>
<path d="M39.2146 6.96357C40.2203 4.44914 43.7797 4.44914 44.7854 6.96357L56 35H28L39.2146 6.96357Z" fill="#FFE605"/>
<path d="M39.2146 16.9636C40.2203 14.4491 43.7797 14.4491 44.7854 16.9636L52 35H32L39.2146 16.9636Z" fill="#FFFF05"/>
<path d="M39.191 26.4906C40.1643 23.8951 43.8357 23.8951 44.809 26.4906L48 35H36L39.191 26.4906Z" fill="white"/>
<path d="M67.2146 6.96357C68.2203 4.44914 71.7797 4.44914 72.7854 6.96357L84 35H56L67.2146 6.96357Z" fill="#FFE605"/>
<path d="M67.2146 16.9636C68.2203 14.4491 71.7797 14.4491 72.7854 16.9636L80 35H60L67.2146 16.9636Z" fill="#FFFF05"/>
<path d="M67.191 26.4906C68.1643 23.8951 71.8357 23.8951 72.809 26.4906L76 35H64L67.191 26.4906Z" fill="white"/>
</svg>
