<svg width="108" height="108" viewBox="0 0 108 108" fill="none" xmlns="http://www.w3.org/2000/svg">
<mask id="path-1-outside-1_84_2414" maskUnits="userSpaceOnUse" x="17" y="2" width="73" height="104" fill="black">
<rect fill="white" x="17" y="2" width="73" height="104"/>
<path fill-rule="evenodd" clip-rule="evenodd" d="M41 9C38.7909 9 37 10.7909 37 13V17H28C25.7909 17 24 18.7909 24 21V26C24 28.2091 25.7909 30 28 30L28 78C25.7909 78 24 79.7909 24 82V87C24 89.2091 25.7909 91 28 91H37V95C37 97.2091 38.7909 99 41 99H66C68.2091 99 70 97.2091 70 95V91H79C81.2091 91 83 89.2091 83 87V82C83 79.7909 81.2091 78 79 78V30C81.2091 30 83 28.2091 83 26V21C83 18.7909 81.2091 17 79 17H70V13C70 10.7909 68.2091 9 66 9H41Z"/>
</mask>
<path fill-rule="evenodd" clip-rule="evenodd" d="M41 9C38.7909 9 37 10.7909 37 13V17H28C25.7909 17 24 18.7909 24 21V26C24 28.2091 25.7909 30 28 30L28 78C25.7909 78 24 79.7909 24 82V87C24 89.2091 25.7909 91 28 91H37V95C37 97.2091 38.7909 99 41 99H66C68.2091 99 70 97.2091 70 95V91H79C81.2091 91 83 89.2091 83 87V82C83 79.7909 81.2091 78 79 78V30C81.2091 30 83 28.2091 83 26V21C83 18.7909 81.2091 17 79 17H70V13C70 10.7909 68.2091 9 66 9H41Z" fill="#00C9FF"/>
<path d="M37 17V24H44V17H37ZM28 30L35 30L35 23H28V30ZM28 78V85H35L35 78L28 78ZM37 91H44V84H37V91ZM70 91V84H63V91H70ZM79 78H72V85H79V78ZM79 30V23H72V30H79ZM70 17H63V24H70V17ZM44 13C44 14.6569 42.6569 16 41 16V2C34.9249 2 30 6.92487 30 13H44ZM44 17V13H30V17H44ZM28 24H37V10H28V24ZM31 21C31 22.6569 29.6569 24 28 24V10C21.9249 10 17 14.9249 17 21H31ZM31 26V21H17V26H31ZM28 23C29.6569 23 31 24.3431 31 26H17C17 32.0751 21.9249 37 28 37V23ZM35 78L35 30L21 30L21 78L35 78ZM28 71C21.9249 71 17 75.9249 17 82H31C31 83.6569 29.6569 85 28 85V71ZM17 82V87H31V82H17ZM17 87C17 93.0751 21.9249 98 28 98V84C29.6569 84 31 85.3431 31 87H17ZM28 98H37V84H28V98ZM30 91V95H44V91H30ZM30 95C30 101.075 34.9249 106 41 106V92C42.6569 92 44 93.3431 44 95H30ZM41 106H66V92H41V106ZM66 106C72.0751 106 77 101.075 77 95H63C63 93.3431 64.3431 92 66 92V106ZM77 95V91H63V95H77ZM70 98H79V84H70V98ZM79 98C85.0751 98 90 93.0751 90 87H76C76 85.3431 77.3431 84 79 84V98ZM90 87V82H76V87H90ZM90 82C90 75.9249 85.0751 71 79 71V85C77.3431 85 76 83.6569 76 82H90ZM72 30V78H86V30H72ZM76 26C76 24.3431 77.3431 23 79 23V37C85.0751 37 90 32.0751 90 26H76ZM76 21V26H90V21H76ZM79 24C77.3431 24 76 22.6569 76 21H90C90 14.9249 85.0751 10 79 10V24ZM70 24H79V10H70V24ZM63 13V17H77V13H63ZM66 16C64.3431 16 63 14.6569 63 13H77C77 6.92487 72.0751 2 66 2V16ZM41 16H66V2H41V16Z" fill="white" mask="url(#path-1-outside-1_84_2414)"/>
<rect x="28" y="27" width="51" height="54" fill="#0FFFFF"/>
<path fill-rule="evenodd" clip-rule="evenodd" d="M41 9C38.7909 9 37 10.7909 37 13V17H28C25.7909 17 24 18.7909 24 21V26C24 28.2091 25.7909 30 28 30H79C81.2091 30 83 28.2091 83 26V21C83 18.7909 81.2091 17 79 17H70V13C70 10.7909 68.2091 9 66 9H41Z" fill="#00C9FF"/>
<path fill-rule="evenodd" clip-rule="evenodd" d="M28 78C25.7909 78 24 79.7909 24 82V87C24 89.2091 25.7909 91 28 91H37V95C37 97.2091 38.7909 99 41 99H66C68.2091 99 70 97.2091 70 95V91H79C81.2091 91 83 89.2091 83 87V82C83 79.7909 81.2091 78 79 78H28Z" fill="#00C9FF"/>
<path d="M42.4945 52.4013L50.5065 38.6208C52.0468 35.9715 56.1 37.0641 56.1 40.1286V48C56.1 48.5523 56.5477 49 57.1 49H62.1158C65.1852 49 67.1109 52.3142 65.5909 54.9808L57.5063 69.1643C55.982 71.8385 51.9 70.7568 51.9 67.6787V59.4118C51.9 58.8595 51.4523 58.4118 50.9 58.4118H45.9525C42.8679 58.4118 40.9441 55.0679 42.4945 52.4013Z" fill="#FFE605"/>
</svg>
