<svg width="108" height="108" viewBox="0 0 108 108" fill="none" xmlns="http://www.w3.org/2000/svg">
<circle cx="54" cy="54" r="48.5" fill="#FFFF05" stroke="white" stroke-width="7"/>
<circle cx="54" cy="54" r="45" fill="#FFFF05"/>
<circle cx="53.9996" cy="53.9996" r="27.439" fill="#FFE605"/>
<path d="M51.801 37.7126C52.988 36.433 55.0126 36.433 56.1997 37.7126L61.9571 43.9189L69.656 47.3996C71.2668 48.1278 71.9019 50.0841 71.0259 51.6197L66.8747 58.8964L65.9075 67.2282C65.7053 68.9705 64.0579 70.1684 62.3381 69.8238L54.0003 68.153L45.6625 69.8238C43.9427 70.1684 42.2954 68.9705 42.0931 67.2282L41.1259 58.8964L36.9748 51.6197C36.0988 50.0841 36.7338 48.1278 38.3447 47.3996L46.0435 43.9189L51.801 37.7126Z" fill="#FFFF05"/>
</svg>
