<svg width="108" height="108" viewBox="0 0 108 108" fill="none" xmlns="http://www.w3.org/2000/svg">
<mask id="path-1-outside-1_84_2415" maskUnits="userSpaceOnUse" x="2" y="5" width="103" height="99" fill="black">
<rect fill="white" x="2" y="5" width="103" height="99"/>
<path fill-rule="evenodd" clip-rule="evenodd" d="M40.102 16C40.102 13.7909 41.8929 12 44.102 12H64.102C66.3112 12 68.102 13.7909 68.102 16V25.2921C71.8751 27.1065 75.2558 29.6069 78.0826 32.6317L87.7726 30.0353C89.9065 29.4635 92.0998 30.7298 92.6716 32.8637L97.848 52.1822C98.4198 54.3161 97.1534 56.5094 95.0196 57.0812L86.8935 59.2585C86.4395 63.3256 85.2572 67.1727 83.4802 70.6665L89.299 79.0982C90.5538 80.9164 90.097 83.4076 88.2788 84.6623L71.818 96.022C69.9998 97.2768 67.5087 96.82 66.2539 95.0018L61.4707 88.0707C58.9471 88.6782 56.3121 89 53.602 89C51.3451 89 49.1402 88.7768 47.0084 88.3513L42.4189 95.0018C41.1641 96.82 38.673 97.2768 36.8548 96.022L20.394 84.6623C18.5758 83.4076 18.119 80.9164 19.3738 79.0982L24.3649 71.8658C22.1966 68.0006 20.7726 63.6616 20.2871 59.0429L12.9657 57.0812C10.8319 56.5094 9.56552 54.3161 10.1373 52.1822L15.3137 32.8637C15.8854 30.7298 18.0788 29.4635 20.2127 30.0353L29.2787 32.4645C32.3226 29.2516 35.9962 26.6413 40.102 24.8314V16ZM53.602 67C59.9533 67 65.102 61.8513 65.102 55.5C65.102 49.1487 59.9533 44 53.602 44C47.2507 44 42.102 49.1487 42.102 55.5C42.102 61.8513 47.2507 67 53.602 67Z"/>
</mask>
<path fill-rule="evenodd" clip-rule="evenodd" d="M40.102 16C40.102 13.7909 41.8929 12 44.102 12H64.102C66.3112 12 68.102 13.7909 68.102 16V25.2921C71.8751 27.1065 75.2558 29.6069 78.0826 32.6317L87.7726 30.0353C89.9065 29.4635 92.0998 30.7298 92.6716 32.8637L97.848 52.1822C98.4198 54.3161 97.1534 56.5094 95.0196 57.0812L86.8935 59.2585C86.4395 63.3256 85.2572 67.1727 83.4802 70.6665L89.299 79.0982C90.5538 80.9164 90.097 83.4076 88.2788 84.6623L71.818 96.022C69.9998 97.2768 67.5087 96.82 66.2539 95.0018L61.4707 88.0707C58.9471 88.6782 56.3121 89 53.602 89C51.3451 89 49.1402 88.7768 47.0084 88.3513L42.4189 95.0018C41.1641 96.82 38.673 97.2768 36.8548 96.022L20.394 84.6623C18.5758 83.4076 18.119 80.9164 19.3738 79.0982L24.3649 71.8658C22.1966 68.0006 20.7726 63.6616 20.2871 59.0429L12.9657 57.0812C10.8319 56.5094 9.56552 54.3161 10.1373 52.1822L15.3137 32.8637C15.8854 30.7298 18.0788 29.4635 20.2127 30.0353L29.2787 32.4645C32.3226 29.2516 35.9962 26.6413 40.102 24.8314V16ZM53.602 67C59.9533 67 65.102 61.8513 65.102 55.5C65.102 49.1487 59.9533 44 53.602 44C47.2507 44 42.102 49.1487 42.102 55.5C42.102 61.8513 47.2507 67 53.602 67Z" fill="#2240F1"/>
<path d="M68.102 25.2921H61.102V29.6932L65.0684 31.6006L68.102 25.2921ZM78.0826 32.6317L72.9683 37.4112L75.8366 40.4804L79.8943 39.3932L78.0826 32.6317ZM87.7726 30.0353L89.5844 36.7967L89.5844 36.7967L87.7726 30.0353ZM92.6716 32.8637L99.4331 31.0519L99.4331 31.0519L92.6716 32.8637ZM97.848 52.1822L91.0865 53.9939L91.0865 53.9939L97.848 52.1822ZM95.0196 57.0812L93.2078 50.3197L93.2078 50.3197L95.0196 57.0812ZM86.8935 59.2585L85.0818 52.4971L80.4669 53.7336L79.9367 58.4818L86.8935 59.2585ZM83.4802 70.6665L77.2409 67.493L75.3503 71.2101L77.7189 74.6424L83.4802 70.6665ZM89.299 79.0982L83.5377 83.0741L83.5377 83.0741L89.299 79.0982ZM88.2788 84.6623L92.2547 90.4236L92.2547 90.4236L88.2788 84.6623ZM71.818 96.022L75.7939 101.783L75.7939 101.783L71.818 96.022ZM66.2539 95.0018L72.0152 91.0259L72.0152 91.0259L66.2539 95.0018ZM61.4707 88.0707L67.232 84.0948L64.5033 80.1407L59.8325 81.2651L61.4707 88.0707ZM47.0084 88.3513L48.3786 81.4867L43.8627 80.5853L41.2471 84.3754L47.0084 88.3513ZM42.4189 95.0018L36.6576 91.0259L36.6576 91.0259L42.4189 95.0018ZM36.8548 96.022L32.8789 101.783L32.8789 101.783L36.8548 96.022ZM20.394 84.6623L16.4181 90.4236L16.4181 90.4236L20.394 84.6623ZM19.3738 79.0982L25.135 83.0741L25.135 83.0741L19.3738 79.0982ZM24.3649 71.8658L30.1261 75.8417L32.6058 72.2486L30.4699 68.4411L24.3649 71.8658ZM20.2871 59.0429L27.2488 58.3112L26.7459 53.5266L22.0989 52.2815L20.2871 59.0429ZM12.9657 57.0812L14.7774 50.3197L14.7774 50.3197L12.9657 57.0812ZM10.1373 52.1822L3.37581 50.3705L3.37581 50.3705L10.1373 52.1822ZM15.3137 32.8637L8.55219 31.0519L8.55219 31.0519L15.3137 32.8637ZM20.2127 30.0353L18.4009 36.7967L18.4009 36.7967L20.2127 30.0353ZM29.2787 32.4645L27.467 39.226L31.4935 40.3049L34.3604 37.2787L29.2787 32.4645ZM40.102 24.8314L42.9256 31.2366L47.102 29.3956V24.8314H40.102ZM44.102 5C38.0269 5 33.102 9.92487 33.102 16H47.102C47.102 17.6569 45.7589 19 44.102 19V5ZM64.102 5H44.102V19H64.102V5ZM75.102 16C75.102 9.92487 70.1771 5 64.102 5V19C62.4452 19 61.102 17.6569 61.102 16H75.102ZM75.102 25.2921V16H61.102V25.2921H75.102ZM83.1969 27.8522C79.7842 24.2004 75.7 21.1785 71.1356 18.9836L65.0684 31.6006C68.0501 33.0344 70.7275 35.0134 72.9683 37.4112L83.1969 27.8522ZM85.9609 23.2738L76.2709 25.8702L79.8943 39.3932L89.5844 36.7967L85.9609 23.2738ZM99.4331 31.0519C97.8607 25.1838 91.829 21.7014 85.9609 23.2738L89.5844 36.7967C87.984 37.2256 86.339 36.2758 85.9101 34.6754L99.4331 31.0519ZM104.609 50.3705L99.4331 31.0519L85.9101 34.6754L91.0865 53.9939L104.609 50.3705ZM96.8313 63.8427C102.699 62.2703 106.182 56.2386 104.609 50.3705L91.0865 53.9939C90.6577 52.3935 91.6074 50.7485 93.2078 50.3197L96.8313 63.8427ZM88.7053 66.02L96.8313 63.8427L93.2078 50.3197L85.0818 52.4971L88.7053 66.02ZM89.7196 73.84C91.8702 69.6117 93.3011 64.9542 93.8503 60.0352L79.9367 58.4818C79.5778 61.697 78.6443 64.7338 77.2409 67.493L89.7196 73.84ZM95.0603 75.1223L89.2415 66.6906L77.7189 74.6424L83.5377 83.0741L95.0603 75.1223ZM92.2547 90.4236C97.2547 86.973 98.5109 80.1224 95.0603 75.1223L83.5377 83.0741C82.5967 81.7105 82.9393 79.8421 84.3029 78.9011L92.2547 90.4236ZM75.7939 101.783L92.2547 90.4236L84.3029 78.9011L67.8421 90.2607L75.7939 101.783ZM60.4926 98.9777C63.9432 103.978 70.7938 105.234 75.7939 101.783L67.8421 90.2607C69.2058 89.3197 71.0741 89.6622 72.0152 91.0259L60.4926 98.9777ZM55.7094 92.0466L60.4926 98.9777L72.0152 91.0259L67.232 84.0948L55.7094 92.0466ZM53.602 96C56.8681 96 60.0529 95.612 63.109 94.8763L59.8325 81.2651C57.8413 81.7444 55.7561 82 53.602 82V96ZM45.6382 95.2159C48.2188 95.731 50.8825 96 53.602 96V82C51.8076 82 50.0617 81.8227 48.3786 81.4867L45.6382 95.2159ZM48.1801 98.9777L52.7697 92.3272L41.2471 84.3754L36.6576 91.0259L48.1801 98.9777ZM32.8789 101.783C37.879 105.234 44.7296 103.978 48.1802 98.9777L36.6576 91.0259C37.5987 89.6622 39.467 89.3197 40.8307 90.2607L32.8789 101.783ZM16.4181 90.4236L32.8789 101.783L40.8307 90.2607L24.3699 78.9011L16.4181 90.4236ZM13.6125 75.1223C10.1619 80.1224 11.418 86.973 16.4181 90.4236L24.3699 78.9011C25.7335 79.8421 26.0761 81.7105 25.135 83.0741L13.6125 75.1223ZM18.6036 67.89L13.6125 75.1223L25.135 83.0741L30.1261 75.8417L18.6036 67.89ZM13.3255 59.7747C13.9127 65.3611 15.6365 70.614 18.2598 75.2906L30.4699 68.4411C28.7567 65.3872 27.6325 61.962 27.2488 58.3112L13.3255 59.7747ZM11.154 63.8427L18.4754 65.8044L22.0989 52.2815L14.7774 50.3197L11.154 63.8427ZM3.37581 50.3705C1.80345 56.2386 5.28585 62.2703 11.154 63.8427L14.7774 50.3197C16.3779 50.7485 17.3276 52.3935 16.8988 53.9939L3.37581 50.3705ZM8.55219 31.0519L3.37581 50.3705L16.8988 53.9939L22.0752 34.6754L8.55219 31.0519ZM22.0244 23.2738C16.1563 21.7014 10.1246 25.1838 8.55219 31.0519L22.0752 34.6754C21.6463 36.2758 20.0013 37.2256 18.4009 36.7967L22.0244 23.2738ZM31.0905 25.703L22.0244 23.2738L18.4009 36.7967L27.467 39.226L31.0905 25.703ZM37.2784 18.4261C32.3102 20.6163 27.8718 23.7715 24.1971 27.6503L34.3604 37.2787C36.7734 34.7317 39.6823 32.6664 42.9256 31.2366L37.2784 18.4261ZM33.102 16V24.8314H47.102V16H33.102ZM58.102 55.5C58.102 57.9853 56.0873 60 53.602 60V74C63.8193 74 72.102 65.7173 72.102 55.5H58.102ZM53.602 51C56.0873 51 58.102 53.0147 58.102 55.5H72.102C72.102 45.2827 63.8193 37 53.602 37V51ZM49.102 55.5C49.102 53.0147 51.1167 51 53.602 51V37C43.3847 37 35.102 45.2827 35.102 55.5H49.102ZM53.602 60C51.1167 60 49.102 57.9853 49.102 55.5H35.102C35.102 65.7173 43.3847 74 53.602 74V60Z" fill="white" mask="url(#path-1-outside-1_84_2415)"/>
<path fill-rule="evenodd" clip-rule="evenodd" d="M53.5 77C65.3741 77 75 67.3741 75 55.5C75 43.6259 65.3741 34 53.5 34C41.6259 34 32 43.6259 32 55.5C32 67.3741 41.6259 77 53.5 77ZM53.5 67C59.8513 67 65 61.8513 65 55.5C65 49.1487 59.8513 44 53.5 44C47.1487 44 42 49.1487 42 55.5C42 61.8513 47.1487 67 53.5 67Z" fill="#2133E1"/>
</svg>
