<svg width="108" height="108" viewBox="0 0 108 108" fill="none" xmlns="http://www.w3.org/2000/svg">
<path d="M30.8301 7.96295L30.8299 7.96299C25.2431 8.97399 20.0534 11.6029 15.8281 15.53C11.6047 19.4554 8.50889 24.5238 6.85797 30.1609C5.20726 35.7974 5.05877 41.8036 6.42727 47.5216C7.79591 53.2401 10.6342 58.4695 14.6529 62.6206C14.6697 62.638 14.6867 62.6552 14.7039 62.6722L47.5972 95.2693C51.3197 98.9583 57.3265 98.9359 61.0215 95.2192L93.1278 62.9234L93.2765 62.7885C93.3564 62.7161 93.4329 62.64 93.5058 62.5605L94.3154 61.6771C94.3314 61.6596 94.3473 61.642 94.3629 61.6242C98.0985 57.3781 100.666 52.159 101.816 46.5267C102.967 40.8949 102.662 35.0382 100.93 29.5702C99.1988 24.1015 96.0987 19.2062 91.9341 15.4156C87.7678 11.6234 82.6912 9.07918 77.235 8.07902C77.2038 8.07331 77.1725 8.06802 77.1412 8.06315L76.0347 7.89124C76.0155 7.88826 75.9963 7.88544 75.9771 7.88278C71.6476 7.28376 67.2489 7.67246 63.0785 9.01951C59.8335 10.0676 56.7909 11.6751 54.0689 13.764C51.1706 11.5129 47.9045 9.81107 44.4155 8.75285C40.0031 7.41459 35.3589 7.14375 30.8301 7.96295Z" fill="#FD30A4" stroke="white" stroke-width="7" stroke-linecap="round" stroke-linejoin="round"/>
<path d="M31.4531 11.4071C35.4341 10.6869 39.5166 10.9245 43.3996 12.1022C47.2826 13.2799 50.8672 15.3677 53.8891 18.2118L54.0555 18.3694L54.2084 18.2261C57.0925 15.5391 60.4832 13.5358 64.1543 12.3501C67.8253 11.1643 71.6924 10.8233 75.4974 11.3498L76.6039 11.5217C81.4001 12.4008 85.8831 14.6406 89.5782 18.0039C93.2732 21.3672 96.0428 25.7287 97.5935 30.6266C99.1443 35.5245 99.4185 40.7765 98.3872 45.8264C97.3559 50.8763 95.0574 55.5361 91.7351 59.3123L90.9255 60.1957L90.7096 60.3915L58.5393 92.7516C56.2057 95.099 52.4119 95.1132 50.0608 92.7833L17.1675 60.1862C13.5971 56.498 11.0579 51.8327 9.83114 46.7069C8.60436 41.5811 8.73787 36.1949 10.2169 31.1446C11.6959 26.0944 14.4627 21.5774 18.2109 18.0937C21.9591 14.61 26.5424 12.2957 31.4531 11.4071Z" fill="#FD30A4"/>
</svg>
